<svg xmlns="http://www.w3.org/2000/svg" xmlns:xlink="http://www.w3.org/1999/xlink" width="1400" zoomAndPan="magnify" viewBox="0 0 1050 1049.999947" height="1400" preserveAspectRatio="xMidYMid meet" version="1.0"><defs><g/><clipPath id="cce9d1a31e"><path d="M 228.78125 333.65625 L 824.597656 333.65625 L 824.597656 393.007812 L 228.78125 393.007812 Z M 228.78125 333.65625 " clip-rule="nonzero"/></clipPath><clipPath id="c1881225b1"><path d="M 245.28125 333.65625 L 807.867188 333.65625 C 816.980469 333.65625 824.367188 341.042969 824.367188 350.15625 L 824.367188 376.507812 C 824.367188 385.621094 816.980469 393.007812 807.867188 393.007812 L 245.28125 393.007812 C 236.167969 393.007812 228.78125 385.621094 228.78125 376.507812 L 228.78125 350.15625 C 228.78125 341.042969 236.167969 333.65625 245.28125 333.65625 Z M 245.28125 333.65625 " clip-rule="nonzero"/></clipPath><clipPath id="f1b51eeda7"><path d="M 253.878906 369.730469 L 779.792969 369.730469 L 779.792969 634.757812 L 253.878906 634.757812 Z M 253.878906 369.730469 " clip-rule="nonzero"/></clipPath><clipPath id="7e47af4318"><path d="M 270.378906 369.730469 L 763.09375 369.730469 C 772.207031 369.730469 779.59375 377.117188 779.59375 386.230469 L 779.59375 618.257812 C 779.59375 627.371094 772.207031 634.757812 763.09375 634.757812 L 270.378906 634.757812 C 261.265625 634.757812 253.878906 627.371094 253.878906 618.257812 L 253.878906 386.230469 C 253.878906 377.117188 261.265625 369.730469 270.378906 369.730469 Z M 270.378906 369.730469 " clip-rule="nonzero"/></clipPath><clipPath id="43ba827af1"><path d="M 825.449219 434.484375 L 852.15625 434.484375 L 852.15625 523.050781 L 825.449219 523.050781 Z M 825.449219 434.484375 " clip-rule="nonzero"/></clipPath><clipPath id="c5297b8ab2"><path d="M 839.011719 442.648438 C 838.941406 459.546875 840.414062 468.167969 840.554688 475.53125 C 840.765625 482.824219 839.574219 491.027344 839.785156 497.335938 C 839.996094 502.316406 842.308594 510.027344 841.257812 510.519531 C 840.484375 510.796875 837.890625 507.714844 836.839844 505.890625 C 835.859375 503.996094 835.71875 502.105469 835.296875 499.300781 C 834.597656 494.53125 834.734375 485.769531 834.105469 479.949219 C 833.542969 475.179688 832.351562 471.183594 832 466.765625 C 831.652344 462.421875 832.351562 457.300781 831.933594 453.65625 C 831.652344 450.992188 831.089844 448.886719 830.460938 446.925781 C 829.898438 445.3125 828.636719 443.980469 828.425781 442.71875 C 828.285156 441.808594 828.355469 441.105469 828.707031 440.265625 C 829.128906 439.003906 830.179688 437.109375 831.371094 436.128906 C 832.5625 435.214844 834.457031 434.515625 836 434.515625 C 837.539062 434.515625 839.574219 435.355469 840.695312 436.058594 C 841.46875 436.546875 841.957031 436.96875 842.378906 437.8125 C 843.078125 438.933594 843.710938 441.175781 843.78125 442.507812 C 843.78125 443.417969 843.710938 444.121094 843.289062 444.960938 C 842.730469 446.152344 841.46875 447.90625 840.136719 448.75 C 838.871094 449.519531 836.699219 449.871094 835.367188 449.871094 C 834.457031 449.800781 833.824219 449.660156 832.984375 449.238281 C 831.792969 448.609375 830.109375 446.996094 829.335938 445.875 C 828.847656 445.101562 828.636719 444.472656 828.566406 443.558594 C 828.425781 442.226562 828.777344 439.914062 829.265625 438.722656 C 829.617188 437.8125 830.179688 437.25 830.738281 436.6875 C 831.300781 436.128906 831.933594 435.636719 832.773438 435.285156 C 834.035156 434.796875 836.136719 434.375 837.679688 434.65625 C 839.152344 435.007812 840.625 435.777344 841.886719 437.179688 C 843.78125 439.144531 845.605469 443.140625 846.515625 446.714844 C 847.566406 450.710938 847.777344 456.601562 847.285156 460.175781 C 846.9375 462.5625 845.253906 463.683594 845.253906 466.136719 C 845.183594 470.0625 849.320312 477.214844 849.742188 481.210938 C 849.949219 483.804688 849.039062 485.488281 848.96875 487.730469 C 848.898438 490.117188 848.96875 492.640625 849.320312 495.09375 C 849.742188 497.546875 850.933594 499.859375 851.421875 502.523438 C 851.914062 505.328125 852.265625 508.695312 852.125 511.429688 C 851.984375 513.742188 852.195312 516.128906 850.933594 517.949219 C 849.53125 520.054688 845.8125 522.226562 843.21875 522.859375 C 841.046875 523.347656 838.734375 522.71875 836.558594 522.15625 C 834.386719 521.527344 832 520.824219 830.320312 519.210938 C 828.496094 517.390625 827.234375 514.164062 826.460938 511.359375 C 825.691406 508.414062 825.972656 505.960938 825.902344 502.035156 C 825.761719 495.234375 826.671875 482.964844 826.601562 474.269531 C 826.460938 466.558594 825.410156 458.355469 825.480469 452.394531 C 825.480469 448.1875 825.691406 444.191406 826.113281 441.738281 C 826.394531 440.40625 826.53125 439.632812 827.09375 438.792969 C 827.585938 437.949219 828.355469 437.109375 829.335938 436.617188 C 830.460938 436.058594 832.421875 435.566406 833.824219 435.847656 C 835.226562 436.128906 836.839844 437.109375 837.75 438.300781 C 838.59375 439.421875 839.011719 442.648438 839.011719 442.648438 " clip-rule="nonzero"/></clipPath><clipPath id="e1ba96c688"><path d="M 189.414062 422.386719 L 232.8125 422.386719 L 232.8125 542 L 189.414062 542 Z M 189.414062 422.386719 " clip-rule="nonzero"/></clipPath><clipPath id="5f78a6952a"><path d="M 189.554688 516.898438 C 194.390625 507.714844 195.722656 505.328125 196.144531 502.945312 C 196.5625 500.703125 195.933594 498.457031 195.933594 496.285156 C 196.003906 494.113281 196.285156 492.007812 196.285156 489.90625 C 196.285156 487.730469 196.074219 485.558594 196.074219 483.382812 C 196.074219 481.210938 196.285156 479.039062 196.425781 476.792969 C 196.492188 474.621094 196.492188 472.304688 196.703125 470.0625 C 196.984375 467.890625 197.40625 465.785156 197.894531 463.613281 C 198.386719 461.4375 199.089844 459.195312 199.789062 457.023438 C 200.492188 454.777344 201.191406 452.605469 202.171875 450.429688 C 203.15625 448.328125 204.699219 446.363281 205.609375 444.121094 C 206.589844 441.878906 206.871094 439.28125 207.710938 437.109375 C 208.414062 435.007812 209.535156 432.691406 210.238281 431.148438 C 210.65625 430.167969 211.007812 429.398438 211.429688 428.695312 C 211.707031 428.207031 211.917969 427.785156 212.269531 427.433594 C 212.550781 427.011719 212.972656 426.664062 213.320312 426.3125 C 213.742188 426.03125 214.304688 425.820312 214.652344 425.609375 C 214.863281 425.402344 215.003906 425.191406 215.214844 424.980469 C 215.425781 424.839844 215.566406 424.558594 215.773438 424.347656 C 215.84375 424.277344 215.984375 424.277344 216.125 424.136719 C 216.195312 424.070312 216.265625 423.929688 216.40625 423.859375 C 216.617188 423.71875 216.898438 423.648438 217.175781 423.507812 C 217.386719 423.367188 217.667969 423.15625 217.878906 423.085938 C 218.019531 423.015625 218.160156 423.015625 218.300781 423.015625 C 218.441406 422.945312 218.507812 422.875 218.648438 422.804688 C 218.859375 422.738281 219.210938 422.738281 219.492188 422.738281 C 219.773438 422.667969 220.050781 422.527344 220.261719 422.527344 C 220.472656 422.527344 220.542969 422.597656 220.683594 422.597656 C 220.824219 422.597656 220.964844 422.527344 221.105469 422.527344 C 221.3125 422.527344 221.664062 422.667969 221.945312 422.738281 C 222.226562 422.738281 222.578125 422.738281 222.785156 422.804688 C 222.925781 422.804688 222.996094 422.945312 223.136719 422.945312 C 223.277344 423.015625 223.417969 423.015625 223.558594 423.085938 C 223.769531 423.15625 224.046875 423.367188 224.257812 423.507812 C 224.539062 423.578125 224.820312 423.71875 225.03125 423.859375 C 225.171875 423.929688 225.242188 424 225.3125 424.136719 C 225.449219 424.207031 225.589844 424.207031 225.660156 424.347656 C 225.871094 424.488281 226.011719 424.769531 226.222656 424.980469 C 226.433594 425.121094 226.714844 425.332031 226.851562 425.539062 C 226.921875 425.679688 226.921875 425.75 226.992188 425.890625 C 227.132812 426.03125 227.203125 426.101562 227.273438 426.171875 C 227.414062 426.382812 227.484375 426.734375 227.625 426.941406 C 227.695312 427.222656 227.976562 427.714844 227.976562 427.714844 C 227.976562 427.714844 229.167969 430.800781 229.726562 432.621094 C 230.429688 434.726562 231.199219 437.390625 231.691406 439.773438 C 232.042969 442.015625 232.25 444.191406 232.390625 446.363281 C 232.53125 448.609375 232.390625 450.921875 232.390625 453.09375 C 232.390625 455.269531 232.320312 457.300781 232.390625 459.40625 C 232.390625 461.578125 232.601562 463.683594 232.601562 465.925781 C 232.671875 468.101562 232.601562 470.414062 232.601562 472.65625 C 232.601562 474.902344 232.601562 477.003906 232.460938 479.316406 C 232.390625 481.773438 232.25 484.578125 232.042969 487.101562 C 231.832031 489.554688 231.550781 491.867188 231.199219 494.320312 C 230.917969 496.917969 230.5 499.789062 230.21875 502.316406 C 229.9375 504.558594 229.726562 506.59375 229.449219 508.765625 C 229.238281 510.9375 228.957031 513.183594 228.816406 515.425781 C 228.605469 517.601562 228.605469 519.84375 228.464844 522.015625 C 228.253906 524.261719 228.675781 526.644531 227.765625 528.675781 C 226.851562 530.78125 224.1875 532.324219 222.644531 534.214844 C 221.3125 535.898438 220.824219 538.214844 219.210938 539.476562 C 217.316406 540.878906 214.023438 542.488281 211.847656 541.789062 C 209.113281 540.878906 205.539062 534.425781 204.976562 532.253906 C 204.699219 531.273438 205.539062 530.359375 205.1875 530.011719 C 204.699219 529.589844 203.015625 530.570312 201.613281 530.5 C 199.859375 530.359375 197.265625 529.589844 195.300781 528.675781 C 193.410156 527.765625 191.164062 526.644531 190.183594 524.820312 C 189.0625 522.859375 189.554688 516.898438 189.554688 516.898438 " clip-rule="nonzero"/></clipPath><clipPath id="6e2e31e19c"><path d="M 805.167969 504.027344 L 834.160156 504.027344 L 834.160156 532.625 L 805.167969 532.625 Z M 805.167969 504.027344 " clip-rule="nonzero"/></clipPath><clipPath id="9cc49ab730"><path d="M 829.40625 516.546875 C 819.800781 523 817.136719 526.785156 816.507812 526.433594 C 815.875 526.082031 816.925781 522.226562 817.558594 520.195312 C 818.1875 518.019531 819.171875 513.953125 820.433594 513.742188 C 821.695312 513.53125 825.339844 518.019531 824.992188 518.652344 C 824.710938 519.210938 820.921875 518.511719 819.453125 517.808594 C 818.328125 517.320312 817.488281 516.546875 816.925781 515.496094 C 816.15625 514.234375 815.523438 512.132812 815.664062 510.519531 C 815.875 508.90625 817.066406 507.011719 818.121094 505.960938 C 818.960938 505.121094 820.082031 504.628906 821.203125 504.417969 C 822.394531 504.136719 823.9375 504.136719 825.199219 504.558594 C 826.53125 505.050781 828.074219 506.171875 828.847656 507.363281 C 829.6875 508.554688 830.179688 510.378906 830.109375 511.851562 C 830.039062 513.253906 829.128906 515.074219 828.425781 516.128906 C 827.863281 516.828125 827.375 517.25 826.601562 517.601562 C 825.480469 518.160156 823.519531 518.792969 822.117188 518.652344 C 820.644531 518.441406 818.960938 517.671875 817.910156 516.6875 C 816.855469 515.707031 816.015625 513.8125 815.734375 512.621094 C 815.523438 511.710938 815.523438 511.078125 815.734375 510.238281 C 816.015625 509.046875 817.066406 507.082031 817.910156 506.171875 C 818.46875 505.539062 819.171875 505.191406 819.871094 504.839844 C 820.574219 504.558594 821.203125 504.277344 822.117188 504.207031 C 823.308594 504.207031 825.339844 504.488281 826.601562 505.191406 C 827.863281 505.960938 829.058594 507.644531 829.617188 508.765625 C 829.96875 509.535156 830.109375 510.167969 830.109375 511.007812 C 830.039062 512.269531 829.476562 514.375 828.847656 515.496094 C 828.425781 516.269531 828.003906 516.6875 827.234375 517.179688 C 826.183594 517.878906 824.21875 518.582031 822.886719 518.652344 C 821.695312 518.722656 820.503906 518.371094 819.453125 517.808594 C 818.46875 517.320312 817.558594 516.40625 816.925781 515.496094 C 816.296875 514.585938 815.804688 513.394531 815.664062 512.269531 C 815.523438 511.148438 815.59375 509.957031 816.15625 508.835938 C 816.71875 507.503906 818.257812 505.75 819.523438 504.980469 C 820.574219 504.347656 821.695312 504.277344 822.886719 504.207031 C 824.289062 504.066406 825.972656 503.859375 827.445312 504.417969 C 829.335938 505.121094 831.863281 506.800781 832.984375 508.695312 C 834.105469 510.519531 834.175781 513.113281 834.035156 515.425781 C 833.964844 517.738281 833.332031 520.40625 832.140625 522.578125 C 830.808594 524.890625 828.496094 527.34375 826.394531 528.957031 C 824.5 530.429688 822.464844 531.550781 820.292969 532.113281 C 818.050781 532.675781 815.316406 532.882812 813.210938 532.113281 C 811.109375 531.34375 809.003906 529.308594 807.671875 527.484375 C 806.339844 525.664062 805.078125 523.277344 805.21875 521.175781 C 805.359375 518.933594 806.832031 516.476562 808.792969 514.304688 C 811.738281 511.148438 819.3125 506.871094 822.816406 505.46875 C 824.640625 504.769531 825.902344 504.417969 827.304688 504.699219 C 828.707031 504.980469 830.320312 505.960938 831.160156 507.082031 C 832.070312 508.203125 832.5625 510.097656 832.5625 511.429688 C 832.5625 512.480469 832.140625 513.53125 831.582031 514.375 C 831.089844 515.214844 829.40625 516.546875 829.40625 516.546875 " clip-rule="nonzero"/></clipPath><clipPath id="753fcd7820"><path d="M 815 361.105469 L 842.941406 361.105469 L 842.941406 405.335938 L 815 405.335938 Z M 815 361.105469 " clip-rule="nonzero"/></clipPath><clipPath id="0a8fa3a4a2"><path d="M 815.175781 390.132812 C 816.648438 386.558594 819.101562 384.59375 820.152344 382.492188 C 821.203125 380.316406 821.0625 377.371094 822.046875 375.199219 C 823.027344 373.097656 826.183594 369.941406 825.902344 369.589844 C 825.832031 369.449219 825.0625 370.011719 824.921875 369.871094 C 824.851562 369.730469 825.339844 368.890625 825.761719 368.398438 C 826.324219 367.699219 827.375 366.785156 828.355469 366.296875 C 829.265625 365.804688 830.390625 365.523438 831.582031 365.59375 C 832.984375 365.734375 835.015625 366.574219 836.136719 367.488281 C 836.980469 368.257812 837.539062 369.238281 837.890625 370.292969 C 838.242188 371.273438 838.382812 372.042969 838.171875 373.585938 C 837.75 377.652344 833.824219 389.503906 831.722656 395.042969 C 830.25 398.757812 829.128906 402.472656 827.445312 404.015625 C 826.460938 404.925781 825.339844 405.066406 824.21875 405.207031 C 823.097656 405.347656 821.835938 405.277344 820.714844 404.789062 C 819.382812 404.15625 817.628906 402.753906 816.855469 401.351562 C 816.15625 399.878906 815.875 397.777344 816.296875 396.164062 C 816.648438 394.621094 818.050781 391.957031 819.242188 391.957031 C 821.273438 391.957031 828.003906 402.054688 827.445312 403.875 C 827.164062 404.789062 825.339844 405.066406 824.148438 405.136719 C 822.675781 405.207031 820.433594 404.648438 819.171875 403.875 C 818.121094 403.175781 817.347656 402.191406 816.855469 401.210938 C 816.296875 400.230469 816.015625 398.96875 816.015625 397.847656 C 816.015625 396.722656 816.367188 395.460938 816.855469 394.410156 C 817.417969 393.429688 818.398438 393.21875 819.242188 391.816406 C 821.132812 388.449219 823.238281 376.671875 825.339844 372.113281 C 826.601562 369.449219 829.335938 366.15625 829.265625 366.15625 C 829.265625 366.085938 828.074219 367.765625 827.933594 367.699219 C 827.863281 367.628906 828.988281 364.472656 830.039062 363.421875 C 831.089844 362.296875 832.84375 361.457031 834.316406 361.246094 C 835.859375 361.035156 837.890625 361.597656 839.082031 362.089844 C 839.855469 362.507812 840.414062 363 840.976562 363.628906 C 841.46875 364.191406 841.957031 364.753906 842.308594 365.664062 C 842.730469 366.855469 843.078125 368.960938 842.730469 370.433594 C 842.378906 371.902344 841.328125 373.515625 840.203125 374.5 C 839.011719 375.410156 836.980469 376.039062 835.71875 376.179688 C 834.804688 376.25 834.035156 376.109375 833.265625 375.902344 C 832.492188 375.621094 831.792969 375.410156 831.089844 374.777344 C 830.109375 374.007812 828.707031 372.394531 828.285156 370.921875 C 827.796875 369.519531 827.863281 367.558594 828.355469 366.15625 C 828.847656 364.683594 830.039062 363.210938 831.300781 362.367188 C 832.5625 361.527344 834.457031 361.035156 835.929688 361.175781 C 837.46875 361.316406 839.363281 362.296875 840.34375 363.070312 C 841.117188 363.5625 841.539062 364.121094 841.886719 364.894531 C 842.449219 366.085938 843.078125 367.835938 842.871094 369.589844 C 842.519531 372.183594 839.855469 374.988281 838.242188 378.566406 C 835.929688 383.824219 833.332031 393.570312 831.160156 398.125 C 829.828125 400.722656 829.058594 402.753906 827.445312 403.875 C 826.042969 404.859375 824.007812 405.277344 822.394531 405.066406 C 820.785156 404.925781 818.890625 403.734375 817.839844 402.683594 C 816.996094 401.773438 816.4375 400.789062 816.226562 399.597656 C 815.945312 398.125 816.226562 395.8125 816.855469 394.410156 C 817.347656 393.359375 818.257812 391.746094 819.171875 391.816406 C 821.203125 391.957031 828.214844 402.054688 827.445312 404.015625 C 827.023438 405.136719 823.9375 405.277344 822.464844 405.207031 C 821.203125 405.136719 820.152344 404.71875 819.171875 403.945312 C 818.050781 403.035156 816.71875 401.070312 816.296875 399.667969 C 815.875 398.476562 815.945312 397.355469 816.296875 396.164062 C 816.71875 394.761719 819.242188 391.957031 819.242188 391.957031 C 819.242188 391.957031 816.789062 396.304688 816.507812 396.234375 C 815.875 395.882812 822.464844 372.675781 825.761719 368.398438 C 827.09375 366.714844 828.566406 366.15625 829.898438 365.734375 C 831.019531 365.453125 832.210938 365.59375 833.195312 365.875 C 834.246094 366.15625 835.296875 366.644531 836.070312 367.488281 C 837.050781 368.539062 838.03125 370.5 838.242188 371.902344 C 838.453125 373.097656 838.242188 374.21875 837.75 375.410156 C 836.980469 376.953125 834.945312 378.003906 833.472656 380.246094 C 831.019531 384.035156 828.003906 394.269531 825.691406 396.722656 C 824.78125 397.777344 824.078125 398.054688 823.027344 398.265625 C 821.765625 398.546875 819.800781 398.476562 818.539062 397.917969 C 817.277344 397.285156 815.945312 395.953125 815.386719 394.621094 C 814.824219 393.359375 815.175781 390.132812 815.175781 390.132812 " clip-rule="nonzero"/></clipPath><clipPath id="08c1272db5"><path d="M 809.285156 356.898438 L 831.371094 356.898438 L 831.371094 402.964844 L 809.285156 402.964844 Z M 809.285156 356.898438 " clip-rule="nonzero"/></clipPath><clipPath id="7f448f1c2d"><path d="M 824.429688 370.992188 C 825.902344 383.824219 826.882812 386.136719 827.164062 388.660156 C 827.515625 391.117188 827.65625 394.058594 827.445312 396.023438 C 827.304688 397.285156 827.09375 398.265625 826.601562 399.179688 C 826.113281 400.160156 825.339844 401.070312 824.429688 401.703125 C 823.519531 402.332031 822.394531 402.753906 821.34375 402.894531 C 820.292969 402.964844 819.03125 402.824219 818.050781 402.472656 C 817.066406 402.054688 816.15625 401.703125 815.316406 400.582031 C 813.703125 398.546875 811.878906 393.570312 811.109375 389.714844 C 810.265625 385.578125 810.40625 380.949219 810.828125 376.53125 C 811.316406 371.972656 812.300781 366.15625 814.054688 362.71875 C 815.246094 360.265625 816.648438 357.8125 818.75 357.179688 C 821.132812 356.410156 826.042969 358.09375 828.074219 359.84375 C 829.898438 361.386719 830.597656 363.492188 831.089844 366.433594 C 831.933594 371.972656 830.808594 385.996094 828.214844 391.183594 C 826.601562 394.269531 824.21875 396.515625 821.765625 397.144531 C 819.382812 397.707031 815.523438 396.445312 813.632812 394.972656 C 812.019531 393.640625 811.386719 391.253906 810.757812 389.152344 C 810.125 387.046875 809.917969 385.015625 809.777344 382.28125 C 809.636719 378.355469 808.445312 371.484375 810.6875 367.90625 C 813 364.191406 820.925781 359.773438 823.867188 360.476562 C 825.902344 361.035156 827.023438 364.261719 827.796875 366.855469 C 828.847656 370.292969 828.214844 376.179688 828.003906 379.828125 C 827.863281 382.492188 827.863281 384.242188 827.164062 386.699219 C 826.253906 389.78125 824.007812 395.25 822.464844 396.863281 C 821.765625 397.636719 821.0625 397.707031 820.292969 397.988281 C 819.589844 398.195312 818.820312 398.40625 817.910156 398.335938 C 816.648438 398.195312 814.613281 397.707031 813.421875 396.722656 C 812.230469 395.8125 811.179688 393.988281 810.757812 392.726562 C 810.476562 391.886719 810.40625 391.253906 810.546875 390.34375 C 810.757812 389.082031 811.597656 386.910156 812.371094 385.925781 C 812.929688 385.15625 813.421875 384.734375 814.261719 384.382812 C 815.386719 383.824219 817.417969 383.191406 818.960938 383.402344 C 820.433594 383.613281 822.257812 384.664062 823.238281 385.4375 C 823.9375 386.066406 824.359375 386.699219 824.710938 387.398438 C 825.058594 388.101562 825.410156 388.800781 825.480469 389.714844 C 825.550781 391.046875 825.339844 393.148438 824.640625 394.480469 C 823.867188 395.742188 822.464844 397.074219 821.0625 397.707031 C 819.730469 398.335938 817.769531 398.476562 816.296875 398.125 C 814.824219 397.777344 813.210938 396.792969 812.230469 395.601562 C 811.25 394.480469 810.6875 392.449219 810.546875 391.117188 C 810.40625 390.203125 810.476562 389.574219 810.828125 388.730469 C 811.316406 387.539062 813.703125 384.875 813.5625 384.804688 C 813.492188 384.734375 812.511719 386.136719 812.230469 385.996094 C 811.457031 385.578125 812.019531 373.167969 814.753906 370.570312 C 816.996094 368.398438 824.007812 367.835938 825.480469 369.238281 C 826.671875 370.292969 825.550781 373.375 825.269531 375.621094 C 824.921875 378.285156 825.058594 382.910156 823.308594 384.105469 C 821.554688 385.296875 816.085938 384.382812 814.894531 382.773438 C 813.773438 381.300781 815.246094 377.863281 815.804688 375.410156 C 816.367188 372.816406 816.648438 368.398438 818.328125 367.488281 C 820.082031 366.574219 824.640625 367.835938 825.972656 369.800781 C 827.726562 372.253906 825.832031 379.546875 825.128906 383.191406 C 824.640625 385.855469 822.675781 387.75 822.957031 389.78125 C 823.308594 392.027344 827.09375 394.199219 827.445312 396.023438 C 827.65625 397.214844 827.09375 398.265625 826.601562 399.179688 C 826.113281 400.160156 825.339844 401.070312 824.429688 401.703125 C 823.519531 402.332031 822.394531 402.753906 821.34375 402.894531 C 820.292969 402.964844 819.03125 402.824219 818.050781 402.472656 C 817.066406 402.125 816.015625 401.421875 815.316406 400.582031 C 814.613281 399.808594 814.054688 398.898438 813.773438 397.636719 C 813.421875 395.882812 814.402344 393.289062 814.191406 390.90625 C 813.984375 388.3125 812.652344 385.578125 812.160156 382.5625 C 811.667969 379.125 811.039062 374.007812 811.597656 371.203125 C 811.949219 369.449219 812.582031 368.117188 813.632812 367.136719 C 814.683594 366.15625 816.578125 365.523438 817.910156 365.382812 C 818.960938 365.3125 820.011719 365.664062 820.925781 366.085938 C 821.835938 366.503906 822.675781 367.277344 823.308594 368.117188 C 823.867188 368.890625 824.429688 370.992188 824.429688 370.992188 " clip-rule="nonzero"/></clipPath><clipPath id="f5e177ee6c"><path d="M 810.207031 430.828125 L 845.507812 430.828125 L 845.507812 555 L 810.207031 555 Z M 810.207031 430.828125 " clip-rule="nonzero"/></clipPath><clipPath id="fdb13f3bf2"><path d="M 810.476562 490.253906 C 810.476562 481.773438 810.476562 479.667969 810.476562 477.496094 C 810.546875 475.179688 810.476562 472.726562 810.757812 470.273438 C 811.039062 467.820312 811.738281 465.367188 812.160156 462.839844 C 812.582031 460.386719 812.859375 457.933594 813.210938 455.339844 C 813.632812 452.605469 814.054688 449.449219 814.613281 446.855469 C 815.105469 444.613281 816.367188 440.617188 816.367188 440.617188 C 816.367188 440.546875 816.367188 439.984375 816.367188 439.703125 C 816.367188 439.351562 816.367188 438.792969 816.367188 438.792969 C 816.367188 438.792969 816.507812 438.160156 816.578125 437.878906 C 816.648438 437.601562 816.789062 437.039062 816.789062 437.039062 C 816.789062 436.96875 817.066406 436.480469 817.207031 436.199219 C 817.347656 435.917969 817.628906 435.425781 817.628906 435.425781 C 817.628906 435.425781 818.050781 434.9375 818.257812 434.726562 C 818.46875 434.515625 818.820312 434.023438 818.890625 434.023438 C 818.890625 434.023438 819.382812 433.746094 819.589844 433.535156 C 819.871094 433.394531 820.363281 433.042969 820.363281 433.042969 C 820.363281 433.042969 820.925781 432.832031 821.203125 432.691406 C 821.484375 432.621094 822.046875 432.410156 822.046875 432.410156 C 822.046875 432.410156 822.675781 432.34375 822.957031 432.273438 C 823.238281 432.273438 823.867188 432.203125 823.867188 432.203125 C 823.867188 432.203125 824.429688 432.273438 824.78125 432.273438 C 825.058594 432.34375 825.621094 432.410156 825.691406 432.410156 C 825.691406 432.410156 826.253906 432.621094 826.53125 432.761719 C 826.8125 432.832031 827.375 433.042969 827.375 433.042969 C 827.375 433.042969 827.515625 433.183594 827.515625 433.183594 C 827.585938 433.183594 827.585938 433.113281 827.65625 433.042969 C 827.796875 432.972656 828.285156 432.410156 828.285156 432.410156 C 828.285156 432.410156 828.847656 432.132812 829.058594 431.992188 C 829.335938 431.851562 829.898438 431.5 829.898438 431.5 C 829.898438 431.5 830.460938 431.359375 830.738281 431.21875 C 831.019531 431.148438 831.582031 431.007812 831.652344 431.007812 C 831.652344 431.007812 832.210938 430.941406 832.5625 430.941406 C 832.84375 430.941406 833.402344 430.941406 833.472656 430.941406 C 833.472656 430.941406 834.035156 431.007812 834.316406 431.078125 C 834.667969 431.148438 835.226562 431.289062 835.226562 431.289062 C 835.226562 431.289062 835.789062 431.5 836.070312 431.640625 C 836.347656 431.78125 836.839844 432.0625 836.910156 432.0625 C 836.910156 432.0625 837.332031 432.410156 837.609375 432.621094 C 837.820312 432.761719 838.3125 433.183594 838.3125 433.183594 C 838.3125 433.183594 838.664062 433.675781 838.871094 433.882812 C 839.011719 434.164062 839.433594 434.585938 839.433594 434.65625 C 839.433594 434.65625 839.644531 435.214844 839.785156 435.496094 C 839.855469 435.636719 839.855469 435.777344 839.925781 435.847656 C 840.066406 436.058594 840.34375 436.058594 840.554688 436.339844 C 841.1875 437.25 842.238281 440.617188 842.589844 442.929688 C 843.007812 445.382812 842.871094 448.328125 842.871094 450.570312 C 842.941406 452.464844 842.730469 454.007812 842.871094 455.621094 C 843.007812 457.160156 843.429688 458.5625 843.710938 460.246094 C 843.992188 462.28125 844.273438 464.875 844.550781 467.117188 C 844.832031 469.292969 845.183594 471.394531 845.324219 473.570312 C 845.464844 475.953125 845.394531 478.40625 845.324219 480.929688 C 845.324219 483.453125 845.253906 486.046875 845.113281 488.574219 C 844.902344 491.097656 844.550781 493.691406 844.339844 496.074219 C 844.0625 498.320312 843.78125 500.28125 843.710938 502.523438 C 843.570312 504.910156 843.710938 507.503906 843.710938 509.957031 C 843.710938 512.339844 843.78125 514.726562 843.710938 517.109375 C 843.640625 519.5625 843.289062 523.699219 843.21875 524.472656 C 843.21875 524.679688 843.148438 524.609375 843.148438 524.820312 C 843.148438 525.523438 844.203125 528.46875 844.410156 530.429688 C 844.691406 532.535156 844.621094 534.636719 844.480469 536.882812 C 844.339844 539.40625 844.203125 542.210938 843.429688 544.664062 C 842.730469 547.046875 841.675781 549.851562 840.136719 551.605469 C 838.664062 553.148438 836.699219 554.480469 834.667969 554.828125 C 832.421875 555.25 829.265625 554.761719 827.09375 553.496094 C 824.640625 552.027344 822.675781 548.449219 821.132812 545.925781 C 819.800781 543.683594 818.890625 541.507812 818.1875 539.125 C 817.488281 536.742188 817.277344 533.65625 817.066406 531.550781 C 816.996094 530.011719 817.347656 528.816406 817.066406 527.554688 C 816.855469 526.292969 815.804688 524.679688 815.664062 523.910156 C 815.523438 523.488281 815.664062 523.277344 815.664062 522.929688 C 815.523438 522.507812 815.316406 522.226562 815.175781 521.667969 C 814.824219 520.335938 814.683594 517.53125 814.332031 515.144531 C 813.914062 512.199219 813.421875 508.414062 812.71875 505.261719 C 812.089844 502.316406 810.828125 499.371094 810.476562 496.707031 C 810.195312 494.460938 810.476562 490.253906 810.476562 490.253906 " clip-rule="nonzero"/></clipPath></defs><rect x="-105" width="1260" fill="#ffffff" y="-104.999995" height="1259.999936" fill-opacity="1"/><rect x="-105" width="1260" fill="#fffbf0" y="-104.999995" height="1259.999936" fill-opacity="1"/><g clip-path="url(#cce9d1a31e)"><g clip-path="url(#c1881225b1)"><path fill="#fef9f0" d="M 228.78125 333.65625 L 824.363281 333.65625 L 824.363281 393.007812 L 228.78125 393.007812 Z M 228.78125 333.65625 " fill-opacity="1" fill-rule="nonzero"/></g></g><g clip-path="url(#f1b51eeda7)"><g clip-path="url(#7e47af4318)"><path fill="#fffbf0" d="M 253.878906 369.730469 L 779.792969 369.730469 L 779.792969 634.757812 L 253.878906 634.757812 Z M 253.878906 369.730469 " fill-opacity="1" fill-rule="nonzero"/></g></g><path stroke-linecap="butt" transform="matrix(0.701134, 0, 0, 0.701134, 156.346786, 237.418216)" fill="none" stroke-linejoin="miter" d="M 257.001279 395.998881 L 112.274752 395.998881 L 112.274752 205.180713 C 112.274752 190.728675 114.681568 180.633418 119.500771 174.906088 C 124.966249 168.136918 134.732796 164.749547 148.794842 164.749547 L 217.935089 164.749547 C 243.981073 164.749547 257.001279 178.226602 257.001279 205.180713 Z M 200.552529 236.040329 C 200.552529 228.747453 197.232014 225.103801 190.590985 225.103801 L 179.654457 225.103801 C 173.013428 225.103801 169.692913 228.747453 169.692913 236.040329 L 169.692913 335.650198 L 200.552529 335.650198 Z M 337.785613 267.289938 L 281.732427 267.289938 L 281.732427 164.749547 L 337.785613 164.749547 Z M 503.727777 395.998881 L 447.089602 395.998881 L 447.089602 236.040329 C 447.089602 228.747453 443.769087 225.103801 437.128058 225.103801 L 430.292032 225.103801 C 423.651002 225.103801 420.330488 228.747453 420.330488 236.040329 L 420.330488 395.998881 L 362.906755 395.998881 L 362.906755 205.180713 C 362.906755 190.728675 365.319142 180.633418 370.132774 174.906088 C 375.603823 168.136918 385.370371 164.749547 399.432416 164.749547 L 464.667159 164.749547 C 490.707571 164.749547 503.727777 178.226602 503.727777 205.180713 Z M 678.851499 395.998881 L 622.402749 395.998881 L 622.402749 236.040329 C 622.402749 228.747453 619.082234 225.103801 612.441205 225.103801 L 604.825192 225.103801 C 598.056022 225.103801 594.668652 228.747453 594.668652 236.040329 L 594.668652 368.264784 C 594.668652 386.756039 586.924498 395.998881 571.43062 395.998881 L 522.79288 395.998881 L 522.79288 335.650198 L 532.559427 335.650198 C 535.818657 335.650198 537.445487 334.218366 537.445487 331.349129 L 537.445487 209.086218 C 537.445487 193.330487 540.504149 182.003966 546.621473 175.101084 C 552.744368 168.198202 563.552755 164.749547 579.046633 164.749547 L 639.980306 164.749547 C 665.892577 164.749547 678.851499 179.530294 678.851499 209.086218 Z M 760.610816 395.998881 L 704.167638 395.998881 L 704.167638 164.749547 L 760.610816 164.749547 Z M 923.622459 351.07722 C 923.622459 381.028708 909.109136 395.998881 880.071346 395.998881 L 786.127523 395.998881 L 786.127523 335.650198 L 856.047757 335.650198 C 863.730625 335.650198 867.569274 331.092847 867.569274 321.978146 L 867.569274 234.669781 C 867.569274 228.290604 864.638753 225.103801 858.783281 225.103801 L 850.966701 225.103801 C 845.629363 225.103801 842.960695 228.424316 842.960695 235.059774 L 842.960695 269.044908 L 785.731958 269.044908 L 785.731958 205.765703 C 785.731958 178.421599 798.885876 164.749547 825.188141 164.749547 L 883.001868 164.749547 C 895.242087 164.749547 905.069919 168.526911 912.490935 176.076068 C 919.911951 183.758936 923.622459 193.653625 923.622459 205.765703 Z M 923.622459 351.07722 " stroke="#fdfbef" stroke-width="45" stroke-opacity="1" stroke-miterlimit="4"/><g fill="#000000" fill-opacity="1"><g transform="translate(228.081535, 515.067191)"><g><path d="M 108.453125 0 L 6.984375 0 L 6.984375 -133.796875 C 6.984375 -143.921875 8.671875 -150.992188 12.046875 -155.015625 C 15.878906 -159.765625 22.726562 -162.140625 32.59375 -162.140625 L 81.0625 -162.140625 C 99.320312 -162.140625 108.453125 -152.691406 108.453125 -133.796875 Z M 68.875 -112.15625 C 68.875 -117.269531 66.546875 -119.828125 61.890625 -119.828125 L 54.234375 -119.828125 C 49.578125 -119.828125 47.25 -117.269531 47.25 -112.15625 L 47.25 -42.3125 L 68.875 -42.3125 Z M 68.875 -112.15625 "/></g></g></g><g fill="#000000" fill-opacity="1"><g transform="translate(347.168006, 515.067191)"><g><path d="M 46.015625 -90.25 L 6.703125 -90.25 L 6.703125 -162.140625 L 46.015625 -162.140625 Z M 46.015625 -90.25 "/></g></g></g><g fill="#000000" fill-opacity="1"><g transform="translate(403.809753, 515.067191)"><g><path d="M 105.71875 0 L 66 0 L 66 -112.15625 C 66 -117.269531 63.671875 -119.828125 59.015625 -119.828125 L 54.234375 -119.828125 C 49.578125 -119.828125 47.25 -117.269531 47.25 -112.15625 L 47.25 0 L 6.984375 0 L 6.984375 -133.796875 C 6.984375 -143.921875 8.671875 -150.992188 12.046875 -155.015625 C 15.878906 -159.765625 22.726562 -162.140625 32.59375 -162.140625 L 78.328125 -162.140625 C 96.585938 -162.140625 105.71875 -152.691406 105.71875 -133.796875 Z M 105.71875 0 "/></g></g></g><g fill="#000000" fill-opacity="1"><g transform="translate(520.157412, 515.067191)"><g><path d="M 112.15625 0 L 72.578125 0 L 72.578125 -112.15625 C 72.578125 -117.269531 70.25 -119.828125 65.59375 -119.828125 L 60.25 -119.828125 C 55.5 -119.828125 53.125 -117.269531 53.125 -112.15625 L 53.125 -19.453125 C 53.125 -6.484375 47.695312 0 36.84375 0 L 2.734375 0 L 2.734375 -42.3125 L 9.578125 -42.3125 C 11.867188 -42.3125 13.015625 -43.316406 13.015625 -45.328125 L 13.015625 -131.046875 C 13.015625 -142.097656 15.160156 -150.039062 19.453125 -154.875 C 23.734375 -159.71875 31.304688 -162.140625 42.171875 -162.140625 L 84.90625 -162.140625 C 103.070312 -162.140625 112.15625 -151.773438 112.15625 -131.046875 Z M 112.15625 0 "/></g></g></g><g fill="#000000" fill-opacity="1"><g transform="translate(643.078223, 515.067191)"><g><path d="M 46.5625 0 L 6.984375 0 L 6.984375 -162.140625 L 46.5625 -162.140625 Z M 46.5625 0 "/></g></g></g><g fill="#000000" fill-opacity="1"><g transform="translate(700.267742, 515.067191)"><g><path d="M 103.65625 -31.5 C 103.65625 -10.5 93.476562 0 73.125 0 L 7.265625 0 L 7.265625 -42.3125 L 56.28125 -42.3125 C 61.664062 -42.3125 64.359375 -45.507812 64.359375 -51.90625 L 64.359375 -113.109375 C 64.359375 -117.585938 62.304688 -119.828125 58.203125 -119.828125 L 52.71875 -119.828125 C 48.976562 -119.828125 47.109375 -117.5 47.109375 -112.84375 L 47.109375 -89.015625 L 6.984375 -89.015625 L 6.984375 -133.375 C 6.984375 -152.550781 16.203125 -162.140625 34.640625 -162.140625 L 75.1875 -162.140625 C 83.757812 -162.140625 90.648438 -159.488281 95.859375 -154.1875 C 101.054688 -148.800781 103.65625 -141.863281 103.65625 -133.375 Z M 103.65625 -31.5 "/></g></g></g><path stroke-linecap="butt" transform="matrix(0.701134, 0, 0, 0.701134, 122.501149, 419.946733)" fill="none" stroke-linejoin="miter" d="M 309.641927 396.002778 L 164.9154 396.002778 L 164.9154 205.179039 C 164.9154 190.727 167.322216 180.637316 172.14142 174.904414 C 177.606898 168.135244 187.373445 164.747873 201.435491 164.747873 L 270.575738 164.747873 C 296.621721 164.747873 309.641927 178.224928 309.641927 205.179039 Z M 253.193178 236.038655 C 253.193178 228.745779 249.872663 225.102127 243.231634 225.102127 L 232.295106 225.102127 C 225.654077 225.102127 222.333562 228.745779 222.333562 236.038655 L 222.333562 335.648524 L 253.193178 335.648524 Z M 385.228207 267.288264 L 329.169451 267.288264 L 329.169451 164.747873 L 385.228207 164.747873 Z M 460.814487 267.288264 L 404.755731 267.288264 L 404.755731 164.747873 L 460.814487 164.747873 Z M 594.598915 396.002778 L 537.37575 396.002778 L 537.37575 234.673678 C 537.37575 228.28893 534.055236 225.102127 527.414206 225.102127 L 476.826499 225.102127 L 476.826499 164.747873 L 553.783327 164.747873 C 565.761694 164.747873 575.589526 168.592093 583.272395 176.274962 C 590.827123 183.824118 594.598915 193.657522 594.598915 205.764029 Z M 741.670974 396.002778 L 685.227795 396.002778 L 675.071255 331.938016 C 671.032038 331.938016 668.497081 334.801681 667.455242 340.529012 L 656.908708 396.002778 L 606.515998 396.002778 L 619.993053 329.202491 C 625.982236 298.994722 639.977426 283.890837 661.984193 283.890837 L 671.360747 283.890837 L 671.360747 234.673678 C 671.360747 228.28893 667.711523 225.102127 660.424219 225.102127 L 620.18805 225.102127 L 620.18805 164.747873 L 685.422792 164.747873 C 713.936876 164.747873 728.193918 179.723617 728.193918 209.669534 L 728.193918 287.406348 C 728.193918 295.607351 728.422343 303.162079 728.879192 310.064961 C 729.336042 316.962272 730.015744 323.280164 730.929443 329.007495 Z M 812.181769 396.002778 L 755.733019 396.002778 L 755.733019 164.747873 L 812.181769 164.747873 Z M 979.756334 326.661963 C 979.756334 349.320576 973.377157 367.421838 960.618804 380.960178 C 947.464886 394.894083 929.692332 401.85825 907.295572 401.85825 C 884.252537 401.85825 865.956279 395.08908 852.412367 381.545168 C 838.874027 368.006828 832.099286 349.710569 832.099286 326.661963 L 832.099286 201.663528 C 832.099286 195.022498 832.751132 189.362024 834.054824 184.670961 C 835.358516 179.98547 837.442194 176.174678 840.30586 173.244156 C 843.169525 170.313635 846.913461 168.168672 851.537668 166.798124 C 856.156303 165.433147 861.788921 164.747873 868.429951 164.747873 L 943.041247 164.747873 C 967.516115 164.747873 979.756334 177.054948 979.756334 201.663528 Z M 922.728166 229.787619 C 922.728166 226.662101 921.424474 225.102127 918.822661 225.102127 L 892.648537 225.102127 C 890.046724 225.102127 888.743032 226.662101 888.743032 229.787619 L 888.743032 320.416499 C 888.743032 334.606685 894.66536 341.704563 906.515586 341.704563 C 917.323972 341.704563 922.728166 334.606685 922.728166 320.416499 Z M 922.728166 229.787619 " stroke="#fdfbef" stroke-width="55" stroke-opacity="1" stroke-miterlimit="4"/><g fill="#000000" fill-opacity="1"><g transform="translate(169.104635, 697.595708)"><g/></g></g><g fill="#000000" fill-opacity="1"><g transform="translate(231.144018, 697.595708)"><g><path d="M 108.453125 0 L 6.984375 0 L 6.984375 -133.796875 C 6.984375 -143.921875 8.671875 -150.992188 12.046875 -155.015625 C 15.878906 -159.765625 22.726562 -162.140625 32.59375 -162.140625 L 81.0625 -162.140625 C 99.320312 -162.140625 108.453125 -152.691406 108.453125 -133.796875 Z M 68.875 -112.15625 C 68.875 -117.269531 66.546875 -119.828125 61.890625 -119.828125 L 54.234375 -119.828125 C 49.578125 -119.828125 47.25 -117.269531 47.25 -112.15625 L 47.25 -42.3125 L 68.875 -42.3125 Z M 68.875 -112.15625 "/></g></g><g transform="translate(346.584598, 697.595708)"><g><path d="M 46.015625 -90.25 L 6.703125 -90.25 L 6.703125 -162.140625 L 46.015625 -162.140625 Z M 46.015625 -90.25 "/></g></g><g transform="translate(399.580451, 697.595708)"><g><path d="M 46.015625 -90.25 L 6.703125 -90.25 L 6.703125 -162.140625 L 46.015625 -162.140625 Z M 46.015625 -90.25 "/></g></g><g transform="translate(452.576303, 697.595708)"><g><path d="M 86.8125 0 L 46.703125 0 L 46.703125 -113.109375 C 46.703125 -117.585938 44.375 -119.828125 39.71875 -119.828125 L 4.25 -119.828125 L 4.25 -162.140625 L 58.203125 -162.140625 C 66.597656 -162.140625 73.488281 -159.445312 78.875 -154.0625 C 84.164062 -148.757812 86.8125 -141.863281 86.8125 -133.375 Z M 86.8125 0 "/></g></g><g transform="translate(546.380335, 697.595708)"><g><path d="M 96.125 0 L 56.5625 0 L 49.4375 -44.921875 C 46.601562 -44.921875 44.820312 -42.910156 44.09375 -38.890625 L 36.703125 0 L 1.375 0 L 10.8125 -46.828125 C 15.019531 -68.015625 24.835938 -78.609375 40.265625 -78.609375 L 46.828125 -78.609375 L 46.828125 -113.109375 C 46.828125 -117.585938 44.273438 -119.828125 39.171875 -119.828125 L 10.953125 -119.828125 L 10.953125 -162.140625 L 56.6875 -162.140625 C 76.6875 -162.140625 86.6875 -151.640625 86.6875 -130.640625 L 86.6875 -76.140625 C 86.6875 -70.390625 86.84375 -65.09375 87.15625 -60.25 C 87.476562 -55.414062 87.957031 -50.988281 88.59375 -46.96875 Z M 96.125 0 "/></g></g><g transform="translate(645.388091, 697.595708)"><g><path d="M 46.5625 0 L 6.984375 0 L 6.984375 -162.140625 L 46.5625 -162.140625 Z M 46.5625 0 "/></g></g><g transform="translate(698.931706, 697.595708)"><g><path d="M 110.515625 -48.609375 C 110.515625 -32.722656 106.039062 -20.035156 97.09375 -10.546875 C 87.875 -0.773438 75.410156 4.109375 59.703125 4.109375 C 43.546875 4.109375 30.71875 -0.640625 21.21875 -10.140625 C 11.726562 -19.628906 6.984375 -32.453125 6.984375 -48.609375 L 6.984375 -136.25 C 6.984375 -140.90625 7.4375 -144.875 8.34375 -148.15625 C 9.257812 -151.445312 10.722656 -154.117188 12.734375 -156.171875 C 14.742188 -158.234375 17.367188 -159.742188 20.609375 -160.703125 C 23.847656 -161.660156 27.796875 -162.140625 32.453125 -162.140625 L 84.765625 -162.140625 C 101.929688 -162.140625 110.515625 -153.507812 110.515625 -136.25 Z M 70.53125 -116.53125 C 70.53125 -118.726562 69.613281 -119.828125 67.78125 -119.828125 L 49.4375 -119.828125 C 47.613281 -119.828125 46.703125 -118.726562 46.703125 -116.53125 L 46.703125 -53 C 46.703125 -43.039062 50.851562 -38.0625 59.15625 -38.0625 C 66.738281 -38.0625 70.53125 -43.039062 70.53125 -53 Z M 70.53125 -116.53125 "/></g></g></g><path stroke-linecap="butt" transform="matrix(0.701134, 0, 0, 0.701134, 133.614331, 340.741969)" fill="none" stroke-linejoin="miter" d="M 84.398632 359.134032 C 84.398632 375.419039 87.318011 389.091091 93.151197 400.150188 C 98.984383 411.209285 108.706359 418.864297 122.317127 423.120795 L 115.208105 443.901869 C 91.875361 437.338838 75.222646 426.764447 65.261102 412.184268 C 55.293986 397.598517 50.313214 379.915105 50.313214 359.134032 L 50.313214 321.399391 C 50.313214 307.671625 47.182125 297.002522 40.925518 289.408795 C 34.663339 281.815067 24.913505 278.015418 11.664875 278.015418 L 11.664875 251.768866 C 24.913505 251.768866 34.663339 247.969217 40.925518 240.37549 C 47.182125 232.776191 50.313214 222.112659 50.313214 208.379322 L 50.313214 170.650252 C 50.313214 149.869179 55.293986 132.185767 65.261102 117.600016 C 75.222646 103.019837 91.875361 92.445446 115.208105 85.882415 L 122.317127 106.479635 C 108.706359 110.858703 98.984383 118.574999 93.151197 129.634096 C 87.318011 140.693193 84.398632 154.365245 84.398632 170.650252 L 84.398632 208.379322 C 84.398632 221.020677 81.880389 232.2302 76.832761 242.013462 C 71.790704 251.796723 64.046551 259.423878 53.59473 264.889356 C 64.046551 270.360406 71.790704 277.987561 76.832761 287.770823 C 81.880389 297.554084 84.398632 308.763607 84.398632 321.399391 Z M 84.398632 359.134032 " stroke="#fdfbef" stroke-width="27.999975" stroke-opacity="1" stroke-miterlimit="4"/><g fill="#000000" fill-opacity="1"><g transform="translate(133.614331, 605.069403)"><g><path d="M 59.171875 -12.53125 C 59.171875 -1.113281 61.210938 8.46875 65.296875 16.21875 C 69.390625 23.976562 76.210938 29.347656 85.765625 32.328125 L 80.78125 46.90625 C 64.414062 42.300781 52.738281 34.882812 45.75 24.65625 C 38.769531 14.4375 35.28125 2.039062 35.28125 -12.53125 L 35.28125 -38.984375 C 35.28125 -48.609375 33.082031 -56.082031 28.6875 -61.40625 C 24.300781 -66.738281 17.46875 -69.40625 8.1875 -69.40625 L 8.1875 -87.796875 C 17.46875 -87.796875 24.300781 -90.457031 28.6875 -95.78125 C 33.082031 -101.113281 35.28125 -108.59375 35.28125 -118.21875 L 35.28125 -144.671875 C 35.28125 -159.242188 38.769531 -171.640625 45.75 -181.859375 C 52.738281 -192.085938 64.414062 -199.503906 80.78125 -204.109375 L 85.765625 -189.671875 C 76.210938 -186.597656 69.390625 -181.179688 65.296875 -173.421875 C 61.210938 -165.671875 59.171875 -156.085938 59.171875 -144.671875 L 59.171875 -118.21875 C 59.171875 -109.363281 57.398438 -101.503906 53.859375 -94.640625 C 50.328125 -87.785156 44.898438 -82.441406 37.578125 -78.609375 C 44.898438 -74.765625 50.328125 -69.410156 53.859375 -62.546875 C 57.398438 -55.691406 59.171875 -47.835938 59.171875 -38.984375 Z M 59.171875 -12.53125 "/></g></g></g><path stroke-linecap="butt" transform="matrix(0.701134, 0, 0, 0.701134, 824.366494, 340.741969)" fill="none" stroke-linejoin="miter" d="M 75.648553 208.379322 C 75.648553 222.112659 78.807499 232.776191 85.130962 240.37549 C 91.448854 247.969217 101.170831 251.768866 114.296893 251.768866 L 114.296893 278.015418 C 101.170831 278.015418 91.448854 281.842924 85.130962 289.503507 C 78.807499 297.158519 75.648553 307.788623 75.648553 321.399391 L 75.648553 359.134032 C 75.648553 380.037675 70.695638 397.748943 60.795378 412.273409 C 50.889547 426.797875 34.208975 437.338838 10.753662 443.901869 L 3.64464 423.120795 C 17.255408 418.864297 26.977385 411.209285 32.810571 400.150188 C 38.643757 389.091091 41.563135 375.419039 41.563135 359.134032 L 41.563135 321.399391 C 41.563135 308.278901 44.326517 296.824239 49.858851 287.040978 C 55.385614 277.257716 63.803898 269.8757 75.102562 264.889356 C 63.803898 259.908584 55.385614 252.526568 49.858851 242.743306 C 44.326517 232.960045 41.563135 221.505383 41.563135 208.379322 L 41.563135 170.650252 C 41.563135 154.365245 38.643757 140.693193 32.810571 129.634096 C 26.977385 118.574999 17.255408 110.858703 3.64464 106.479635 L 10.753662 85.882415 C 34.208975 92.445446 50.889547 102.986409 60.795378 117.510875 C 70.695638 132.035341 75.648553 149.74661 75.648553 170.650252 Z M 75.648553 208.379322 " stroke="#fdfbef" stroke-width="27.999975" stroke-opacity="1" stroke-miterlimit="4"/><g fill="#000000" fill-opacity="1"><g transform="translate(824.366494, 605.069403)"><g><path d="M 53.046875 -118.21875 C 53.046875 -108.59375 55.257812 -101.113281 59.6875 -95.78125 C 64.113281 -90.457031 70.929688 -87.796875 80.140625 -87.796875 L 80.140625 -69.40625 C 70.929688 -69.40625 64.113281 -66.71875 59.6875 -61.34375 C 55.257812 -55.976562 53.046875 -48.523438 53.046875 -38.984375 L 53.046875 -12.53125 C 53.046875 2.125 49.570312 14.539062 42.625 24.71875 C 35.675781 34.90625 23.984375 42.300781 7.546875 46.90625 L 2.5625 32.328125 C 12.101562 29.347656 18.914062 23.976562 23 16.21875 C 27.09375 8.46875 29.140625 -1.113281 29.140625 -12.53125 L 29.140625 -38.984375 C 29.140625 -48.179688 31.078125 -56.207031 34.953125 -63.0625 C 38.828125 -69.925781 44.726562 -75.109375 52.65625 -78.609375 C 44.726562 -82.097656 38.828125 -87.269531 34.953125 -94.125 C 31.078125 -100.988281 29.140625 -109.019531 29.140625 -118.21875 L 29.140625 -144.671875 C 29.140625 -156.085938 27.09375 -165.671875 23 -173.421875 C 18.914062 -181.179688 12.101562 -186.597656 2.5625 -189.671875 L 7.546875 -204.109375 C 23.984375 -199.503906 35.675781 -192.109375 42.625 -181.921875 C 49.570312 -171.742188 53.046875 -159.328125 53.046875 -144.671875 Z M 53.046875 -118.21875 "/></g></g></g><g clip-path="url(#43ba827af1)"><g clip-path="url(#c5297b8ab2)"><path fill="#fef9f0" d="M 822.675781 431.710938 L 854.929688 431.710938 L 854.929688 525.695312 L 822.675781 525.695312 Z M 822.675781 431.710938 " fill-opacity="1" fill-rule="nonzero"/></g></g><g clip-path="url(#e1ba96c688)"><g clip-path="url(#5f78a6952a)"><path fill="#fef9f0" d="M 186.75 419.722656 L 235.476562 419.722656 L 235.476562 544.589844 L 186.75 544.589844 Z M 186.75 419.722656 " fill-opacity="1" fill-rule="nonzero"/></g></g><g clip-path="url(#6e2e31e19c)"><g clip-path="url(#9cc49ab730)"><path fill="#fef9f0" d="M 802.414062 501.402344 L 836.917969 501.402344 L 836.917969 534.988281 L 802.414062 534.988281 Z M 802.414062 501.402344 " fill-opacity="1" fill-rule="nonzero"/></g></g><g clip-path="url(#753fcd7820)"><g clip-path="url(#0a8fa3a4a2)"><path fill="#fef9f0" d="M 812.371094 358.371094 L 845.675781 358.371094 L 845.675781 408.066406 L 812.371094 408.066406 Z M 812.371094 358.371094 " fill-opacity="1" fill-rule="nonzero"/></g></g><g clip-path="url(#08c1272db5)"><g clip-path="url(#7f448f1c2d)"><path fill="#fef9f0" d="M 806.972656 354.375 L 833.894531 354.375 L 833.894531 405.699219 L 806.972656 405.699219 Z M 806.972656 354.375 " fill-opacity="1" fill-rule="nonzero"/></g></g><g clip-path="url(#f5e177ee6c)"><g clip-path="url(#fdb13f3bf2)"><path fill="#fef9f0" d="M 807.671875 428.136719 L 848.199219 428.136719 L 848.199219 557.625 L 807.671875 557.625 Z M 807.671875 428.136719 " fill-opacity="1" fill-rule="nonzero"/></g></g></svg>