<svg xmlns="http://www.w3.org/2000/svg" xmlns:xlink="http://www.w3.org/1999/xlink" width="1239" zoomAndPan="magnify" viewBox="0 0 929.25 631.499985" height="842" preserveAspectRatio="xMidYMid meet" version="1.0"><defs><g/></defs><g fill="#050505" fill-opacity="1"><g transform="translate(181.845238, 305.452644)"><g><path d="M 108.375 0 L 6.984375 0 L 6.984375 -133.6875 C 6.984375 -143.8125 8.671875 -150.878906 12.046875 -154.890625 C 15.867188 -159.640625 22.707031 -162.015625 32.5625 -162.015625 L 81 -162.015625 C 99.25 -162.015625 108.375 -152.570312 108.375 -133.6875 Z M 68.828125 -112.0625 C 68.828125 -117.175781 66.5 -119.734375 61.84375 -119.734375 L 54.1875 -119.734375 C 49.53125 -119.734375 47.203125 -117.175781 47.203125 -112.0625 L 47.203125 -42.28125 L 68.828125 -42.28125 Z M 68.828125 -112.0625 "/></g></g></g><g fill="#050505" fill-opacity="1"><g transform="translate(300.835678, 305.452644)"><g><path d="M 45.96875 -90.171875 L 6.703125 -90.171875 L 6.703125 -162.015625 L 45.96875 -162.015625 Z M 45.96875 -90.171875 "/></g></g></g><g fill="#050505" fill-opacity="1"><g transform="translate(357.431749, 305.452644)"><g><path d="M 105.640625 0 L 65.953125 0 L 65.953125 -112.0625 C 65.953125 -117.175781 63.625 -119.734375 58.96875 -119.734375 L 54.1875 -119.734375 C 49.53125 -119.734375 47.203125 -117.175781 47.203125 -112.0625 L 47.203125 0 L 6.984375 0 L 6.984375 -133.6875 C 6.984375 -143.8125 8.671875 -150.878906 12.046875 -154.890625 C 15.867188 -159.640625 22.707031 -162.015625 32.5625 -162.015625 L 78.265625 -162.015625 C 96.515625 -162.015625 105.640625 -152.570312 105.640625 -133.6875 Z M 105.640625 0 "/></g></g></g><g fill="#050505" fill-opacity="1"><g transform="translate(473.685585, 305.452644)"><g><path d="M 112.0625 0 L 72.515625 0 L 72.515625 -112.0625 C 72.515625 -117.175781 70.191406 -119.734375 65.546875 -119.734375 L 60.203125 -119.734375 C 55.460938 -119.734375 53.09375 -117.175781 53.09375 -112.0625 L 53.09375 -19.4375 C 53.09375 -6.476562 47.664062 0 36.8125 0 L 2.734375 0 L 2.734375 -42.28125 L 9.578125 -42.28125 C 11.859375 -42.28125 13 -43.285156 13 -45.296875 L 13 -130.953125 C 13 -141.984375 15.144531 -149.921875 19.4375 -154.765625 C 23.71875 -159.597656 31.285156 -162.015625 42.140625 -162.015625 L 84.84375 -162.015625 C 102.988281 -162.015625 112.0625 -151.660156 112.0625 -130.953125 Z M 112.0625 0 "/></g></g></g><g fill="#050505" fill-opacity="1"><g transform="translate(596.507272, 305.452644)"><g><path d="M 46.515625 0 L 6.984375 0 L 6.984375 -162.015625 L 46.515625 -162.015625 Z M 46.515625 0 "/></g></g></g><g fill="#050505" fill-opacity="1"><g transform="translate(653.650673, 305.452644)"><g><path d="M 103.578125 -31.46875 C 103.578125 -10.488281 93.40625 0 73.0625 0 L 7.25 0 L 7.25 -42.28125 L 56.234375 -42.28125 C 61.617188 -42.28125 64.3125 -45.472656 64.3125 -51.859375 L 64.3125 -113.03125 C 64.3125 -117.5 62.257812 -119.734375 58.15625 -119.734375 L 52.6875 -119.734375 C 48.945312 -119.734375 47.078125 -117.40625 47.078125 -112.75 L 47.078125 -88.9375 L 6.984375 -88.9375 L 6.984375 -133.28125 C 6.984375 -152.4375 16.195312 -162.015625 34.625 -162.015625 L 75.125 -162.015625 C 83.695312 -162.015625 90.582031 -159.367188 95.78125 -154.078125 C 100.976562 -148.691406 103.578125 -141.757812 103.578125 -133.28125 Z M 103.578125 -31.46875 "/></g></g></g><g fill="#050505" fill-opacity="1"><g transform="translate(122.915882, 487.833964)"><g/></g></g><g fill="#050505" fill-opacity="1"><g transform="translate(184.905238, 487.833964)"><g><path d="M 108.375 0 L 6.984375 0 L 6.984375 -133.6875 C 6.984375 -143.8125 8.671875 -150.878906 12.046875 -154.890625 C 15.867188 -159.640625 22.707031 -162.015625 32.5625 -162.015625 L 81 -162.015625 C 99.25 -162.015625 108.375 -152.570312 108.375 -133.6875 Z M 68.828125 -112.0625 C 68.828125 -117.175781 66.5 -119.734375 61.84375 -119.734375 L 54.1875 -119.734375 C 49.53125 -119.734375 47.203125 -117.175781 47.203125 -112.0625 L 47.203125 -42.28125 L 68.828125 -42.28125 Z M 68.828125 -112.0625 "/></g></g><g transform="translate(300.252726, 487.833964)"><g><path d="M 45.96875 -90.171875 L 6.703125 -90.171875 L 6.703125 -162.015625 L 45.96875 -162.015625 Z M 45.96875 -90.171875 "/></g></g><g transform="translate(353.205842, 487.833964)"><g><path d="M 45.96875 -90.171875 L 6.703125 -90.171875 L 6.703125 -162.015625 L 45.96875 -162.015625 Z M 45.96875 -90.171875 "/></g></g><g transform="translate(406.158959, 487.833964)"><g><path d="M 86.75 0 L 46.65625 0 L 46.65625 -113.03125 C 46.65625 -117.5 44.332031 -119.734375 39.6875 -119.734375 L 4.234375 -119.734375 L 4.234375 -162.015625 L 58.15625 -162.015625 C 66.550781 -162.015625 73.4375 -159.320312 78.8125 -153.9375 C 84.101562 -148.644531 86.75 -141.757812 86.75 -133.28125 Z M 86.75 0 "/></g></g><g transform="translate(499.887347, 487.833964)"><g><path d="M 96.0625 0 L 56.515625 0 L 49.390625 -44.875 C 46.566406 -44.875 44.789062 -42.867188 44.0625 -38.859375 L 36.671875 0 L 1.375 0 L 10.8125 -46.796875 C 15.007812 -67.960938 24.816406 -78.546875 40.234375 -78.546875 L 46.796875 -78.546875 L 46.796875 -113.03125 C 46.796875 -117.5 44.242188 -119.734375 39.140625 -119.734375 L 10.953125 -119.734375 L 10.953125 -162.015625 L 56.65625 -162.015625 C 76.625 -162.015625 86.609375 -151.519531 86.609375 -130.53125 L 86.609375 -76.078125 C 86.609375 -70.328125 86.769531 -65.035156 87.09375 -60.203125 C 87.414062 -55.367188 87.894531 -50.945312 88.53125 -46.9375 Z M 96.0625 0 "/></g></g><g transform="translate(598.815264, 487.833964)"><g><path d="M 46.515625 0 L 6.984375 0 L 6.984375 -162.015625 L 46.515625 -162.015625 Z M 46.515625 0 "/></g></g><g transform="translate(652.315701, 487.833964)"><g><path d="M 110.421875 -48.578125 C 110.421875 -32.703125 105.953125 -20.019531 97.015625 -10.53125 C 87.796875 -0.769531 75.34375 4.109375 59.65625 4.109375 C 43.507812 4.109375 30.691406 -0.632812 21.203125 -10.125 C 11.722656 -19.613281 6.984375 -32.429688 6.984375 -48.578125 L 6.984375 -136.15625 C 6.984375 -140.800781 7.4375 -144.765625 8.34375 -148.046875 C 9.257812 -151.335938 10.71875 -154.007812 12.71875 -156.0625 C 14.726562 -158.113281 17.351562 -159.617188 20.59375 -160.578125 C 23.832031 -161.535156 27.773438 -162.015625 32.421875 -162.015625 L 84.703125 -162.015625 C 101.847656 -162.015625 110.421875 -153.394531 110.421875 -136.15625 Z M 70.46875 -116.4375 C 70.46875 -118.632812 69.554688 -119.734375 67.734375 -119.734375 L 49.390625 -119.734375 C 47.566406 -119.734375 46.65625 -118.632812 46.65625 -116.4375 L 46.65625 -52.953125 C 46.65625 -43.015625 50.804688 -38.046875 59.109375 -38.046875 C 66.679688 -38.046875 70.46875 -43.015625 70.46875 -52.953125 Z M 70.46875 -116.4375 "/></g></g></g><g fill="#050505" fill-opacity="1"><g transform="translate(87.454208, 395.382284)"><g><path d="M 59.125 -12.515625 C 59.125 -1.109375 61.164062 8.46875 65.25 16.21875 C 69.34375 23.96875 76.15625 29.332031 85.6875 32.3125 L 80.71875 46.875 C 64.363281 42.269531 52.695312 34.859375 45.71875 24.640625 C 38.738281 14.429688 35.25 2.046875 35.25 -12.515625 L 35.25 -38.953125 C 35.25 -48.566406 33.054688 -56.035156 28.671875 -61.359375 C 24.285156 -66.679688 17.453125 -69.34375 8.171875 -69.34375 L 8.171875 -87.734375 C 17.453125 -87.734375 24.285156 -90.394531 28.671875 -95.71875 C 33.054688 -101.039062 35.25 -108.507812 35.25 -118.125 L 35.25 -144.5625 C 35.25 -159.125 38.738281 -171.507812 45.71875 -181.71875 C 52.695312 -191.9375 64.363281 -199.347656 80.71875 -203.953125 L 85.6875 -189.515625 C 76.15625 -186.453125 69.34375 -181.046875 65.25 -173.296875 C 61.164062 -165.546875 59.125 -155.96875 59.125 -144.5625 L 59.125 -118.125 C 59.125 -109.269531 57.359375 -101.414062 53.828125 -94.5625 C 50.296875 -87.707031 44.867188 -82.367188 37.546875 -78.546875 C 44.867188 -74.710938 50.296875 -69.367188 53.828125 -62.515625 C 57.359375 -55.660156 59.125 -47.804688 59.125 -38.953125 Z M 59.125 -12.515625 "/></g></g></g><g fill="#050505" fill-opacity="1"><g transform="translate(777.649317, 395.382284)"><g><path d="M 53 -118.125 C 53 -108.507812 55.210938 -101.039062 59.640625 -95.71875 C 64.066406 -90.394531 70.878906 -87.734375 80.078125 -87.734375 L 80.078125 -69.34375 C 70.878906 -69.34375 64.066406 -66.660156 59.640625 -61.296875 C 55.210938 -55.929688 53 -48.484375 53 -38.953125 L 53 -12.515625 C 53 2.128906 49.53125 14.535156 42.59375 24.703125 C 35.65625 34.878906 23.96875 42.269531 7.53125 46.875 L 2.546875 32.3125 C 12.085938 29.332031 18.898438 23.96875 22.984375 16.21875 C 27.078125 8.46875 29.125 -1.109375 29.125 -12.515625 L 29.125 -38.953125 C 29.125 -48.148438 31.054688 -56.171875 34.921875 -63.015625 C 38.796875 -69.867188 44.691406 -75.046875 52.609375 -78.546875 C 44.691406 -82.035156 38.796875 -87.207031 34.921875 -94.0625 C 31.054688 -100.914062 29.125 -108.9375 29.125 -118.125 L 29.125 -144.5625 C 29.125 -155.96875 27.078125 -165.546875 22.984375 -173.296875 C 18.898438 -181.046875 12.085938 -186.453125 2.546875 -189.515625 L 7.53125 -203.953125 C 23.96875 -199.347656 35.65625 -191.957031 42.59375 -181.78125 C 49.53125 -171.613281 53 -159.207031 53 -144.5625 Z M 53 -118.125 "/></g></g></g></svg>